<?xml version="1.0" standalone="no"?>
<!DOCTYPE svg PUBLIC "-//W3C//DTD SVG 20010904//EN"
 "http://www.w3.org/TR/2001/REC-SVG-20010904/DTD/svg10.dtd">
<svg version="1.0" xmlns="http://www.w3.org/2000/svg"
 width="208.000000pt" height="34.000000pt" viewBox="0 0 208.000000 34.000000"
 preserveAspectRatio="xMidYMid meet">
<metadata>
Created by potrace 1.16, written by Peter Selinger 2001-2019
</metadata>
<g transform="translate(0.000000,34.000000) scale(0.100000,-0.100000)"
fill="#000000" stroke="none">
<path d="M1730 337 c-3 -3 -296 -8 -652 -11 -356 -4 -658 -10 -670 -13 -13 -3
-48 -7 -78 -9 -95 -7 -150 -24 -150 -44 0 -14 11 -21 42 -27 41 -8 39 -9 -52
-21 -176 -25 -182 -28 -161 -85 8 -20 22 -30 56 -39 40 -11 45 -15 41 -34 -8
-29 22 -36 134 -34 47 1 96 1 110 1 358 -14 566 -17 1010 -18 591 0 686 5 706
31 7 10 10 24 8 31 -8 19 -54 32 -89 25 -33 -7 -69 5 -60 21 4 5 -6 9 -21 9
-15 0 -24 3 -20 7 7 7 12 8 77 11 34 2 36 4 53 58 l18 56 -24 16 c-27 20 -49
24 -63 12 -12 -9 -30 8 -30 30 0 9 -10 15 -25 16 -14 1 -54 4 -90 8 -36 4 -68
5 -70 3z"/>
</g>
</svg>
