<?xml version="1.0" encoding="UTF-8" standalone="no" ?>
<!DOCTYPE svg PUBLIC "-//W3C//DTD SVG 1.1//EN" "http://www.w3.org/Graphics/SVG/1.1/DTD/svg11.dtd">
<svg xmlns="http://www.w3.org/2000/svg" xmlns:xlink="http://www.w3.org/1999/xlink" version="1.1" width="220" height="35" viewBox="0 0 220 35" xml:space="preserve">
<desc>Created with Fabric.js 5.2.4</desc>
<defs>
</defs>
<rect x="0" y="0" width="100%" height="100%" fill="transparent"></rect>
<g transform="matrix(1 0 0 1 110 17.5)" id="7c6fc45c-57d4-418e-8781-0b0b3b6fcde4"  >
<rect style="stroke: none; stroke-width: 1; stroke-dasharray: none; stroke-linecap: butt; stroke-dashoffset: 0; stroke-linejoin: miter; stroke-miterlimit: 4; fill: rgb(255,255,255); fill-rule: nonzero; opacity: 1; visibility: hidden;" vector-effect="non-scaling-stroke"  x="-110" y="-17.5" rx="0" ry="0" width="220" height="35" />
</g>
<g transform="matrix(Infinity NaN NaN Infinity 0 0)" id="5399ec2c-fd14-4fef-a5c8-46b2ba56c617"  >
</g>
<g transform="matrix(0.03 0 0 0.03 220 35)" id="3c834bc1-65f0-4b82-b98e-fb0935c5f75c"  >
<path style="stroke: rgb(0,0,0); stroke-width: 0; stroke-dasharray: none; stroke-linecap: butt; stroke-dashoffset: 0; stroke-linejoin: miter; stroke-miterlimit: 4; fill: rgb(93,255,3); fill-rule: nonzero; opacity: 1;" vector-effect="non-scaling-stroke"  transform=" translate(-104, -17)" d="M 37.9363 3.14218 C 37.9363 3.06161 37.9997 2.90047 38.0632 2.90047 C 38.0632 2.90047 38.3171 2.90047 38.571 2.98104 L 38.8884 2.65877 L 39.0153 2.49763 C 39.1423 2.5782 39.3961 2.5782 39.5866 2.5782 C 39.777 2.5782 40.3482 2.17536 40.4117 2.25592 L 40.4117 2.41706 C 40.4117 2.5782 40.6021 2.5782 40.856 2.49763 C 41.0465 2.41706 41.9351 2.5782 42.189 2.5782 C 42.4429 2.5782 43.2045 2.25592 43.395 2.25592 C 43.5854 2.25592 43.9662 2.49763 44.0932 2.49763 C 44.2201 2.49763 44.601 2.25592 44.6644 2.25592 C 44.7279 2.25592 44.9818 2.25592 44.9818 2.09479 C 44.9818 1.93365 45.4896 2.17536 45.6165 2.17536 L 45.7435 2.09479 C 45.9974 1.93365 46.0608 2.01422 46.1243 2.25592 L 46.1878 2.41706 C 46.3782 2.17536 46.5686 2.01422 46.6956 2.09479 C 46.8225 2.17536 47.2668 2.17536 47.5207 2.17536 L 47.7111 2.01422 L 47.8381 1.93365 C 47.965 1.93365 48.2189 2.01422 48.3459 2.01422 L 48.2824 2.25592 C 48.4094 2.33649 48.4728 2.49763 48.5998 2.65877 C 48.7267 2.5782 48.7902 2.49763 48.7902 2.33649 C 48.7902 2.25592 49.1076 2.09479 49.3615 2.01422 L 49.5519 2.17536 L 49.5519 2.25592 C 49.8058 2.41706 50.0597 2.41706 50.1866 2.25592 L 50.3135 2.17536 L 50.377 2.09479 C 50.504 2.09479 50.5674 2.17536 50.5674 2.25592 L 50.5674 2.41706 C 50.5674 2.49763 50.6309 2.49763 50.7579 2.49763 L 50.8213 2.5782 C 50.8848 2.49763 50.9483 2.33649 51.0118 2.25592 L 51.1387 2.09479 C 51.2656 2.17536 51.4561 2.17536 51.5195 2.17536 C 51.583 2.17536 52.0273 2.17536 52.3447 2.49763 L 52.789 2.17536 C 52.8525 2.09479 53.0429 2.17536 53.0429 2.17536 L 53.2333 2.49763 C 53.4872 2.33649 53.7411 2.17536 53.8046 2.09479 C 53.8681 2.01422 54.1219 1.85308 54.1854 1.93365 C 54.2489 2.09479 54.5028 2.33649 54.6932 2.17536 L 54.8202 2.17536 L 55.074 2.09479 C 55.3914 2.09479 55.6453 2.09479 55.7088 2.01422 C 55.7723 2.01422 56.0261 1.93365 56.2166 1.85308 C 56.407 1.77251 57.1052 2.09479 57.1687 2.01422 L 57.2321 1.93365 C 57.3591 1.93365 57.4226 1.93365 57.3591 2.09479 L 57.3591 2.17536 C 57.3591 2.25592 57.486 2.33649 57.5495 2.33649 L 57.7399 2.49763 C 57.7399 2.33649 57.8034 2.17536 57.8669 2.09479 C 57.9303 2.01422 58.2477 1.85308 58.5651 1.93365 L 58.819 2.01422 L 58.8824 2.01422 C 58.9459 2.09479 58.9459 2.17536 58.9459 2.17536 C 58.9459 2.17536 58.819 2.33649 58.7555 2.5782 C 58.692 2.81991 57.9938 2.73934 57.9303 2.73934 L 57.9303 2.90047 C 57.9303 2.98104 58.2477 3.22275 58.5651 3.38389 L 58.9459 3.14218 L 59.0729 2.98104 C 59.2633 2.90047 59.2633 2.81991 59.0729 2.73934 C 58.8824 2.65877 59.1363 2.01422 59.3268 1.85308 L 59.5807 1.85308 C 60.025 1.85308 60.4693 2.01422 60.9136 1.77251 C 61.0405 1.69194 61.2944 1.77251 61.4214 1.93365 L 61.5483 2.01422 C 61.6118 2.25592 61.6753 2.33649 61.7387 2.17536 C 61.8022 2.01422 62.1196 1.69194 62.31 1.77251 C 62.5004 1.77251 63.1352 1.69194 63.2621 1.45024 L 63.4525 1.61137 L 63.516 1.61137 C 63.5795 1.69194 63.6429 1.85308 63.7699 2.01422 L 63.9603 1.85308 L 64.0238 1.85308 C 64.1507 1.85308 64.2777 1.93365 64.2777 2.09479 C 64.2777 2.17536 64.4046 2.41706 64.4681 2.33649 L 64.4681 2.25592 C 64.4681 2.17536 64.4681 2.09479 64.4681 2.09479 C 64.5316 1.93365 64.6585 1.93365 64.7855 2.01422 C 65.1028 2.25592 64.8489 1.77251 65.0394 1.77251 L 65.1663 1.77251 C 65.2932 1.69194 65.5471 1.77251 65.7376 1.85308 L 65.928 1.69194 C 65.9915 1.61137 66.1184 1.61137 66.1184 1.61137 L 66.4992 2.09479 C 66.7531 1.69194 67.0705 1.53081 67.2609 1.77251 C 67.4513 1.93365 68.1495 1.77251 68.2765 1.85308 C 68.4034 1.93365 68.9747 1.69194 69.2921 1.69194 L 69.546 1.53081 L 69.6094 1.53081 C 69.6729 1.61137 69.9903 1.69194 70.1807 1.77251 L 70.5615 1.69194 L 70.8789 1.61137 C 70.9424 1.85308 71.0693 1.93365 71.1963 1.77251 C 71.3232 1.69194 71.831 1.77251 71.8945 1.77251 C 71.9579 1.77251 72.2118 1.61137 72.4657 1.53081 L 72.9735 1.69194 C 73.2909 1.69194 73.5448 1.69194 73.6082 1.69194 C 73.6717 1.77251 73.7987 1.77251 73.8621 1.69194 C 73.9256 1.61137 74.3064 1.36967 74.3699 1.45024 C 74.4334 1.53081 74.6873 1.77251 74.8142 1.85308 C 74.9412 1.93365 75.449 1.85308 75.7029 1.69194 C 75.9568 1.61137 76.5915 1.69194 76.7184 1.69194 C 76.8454 1.69194 77.2897 1.53081 77.3532 1.61137 C 77.4801 1.69194 77.7975 1.85308 77.861 1.85308 L 77.9244 1.85308 L 78.1149 1.69194 C 78.3687 1.69194 78.6861 1.77251 78.7496 1.77251 C 78.8131 1.77251 79.1304 1.69194 79.3208 1.69194 C 79.5113 1.69194 79.9556 1.69194 79.9556 1.45024 L 80.3364 1.69194 L 80.3999 1.77251 C 80.4634 1.77251 80.6538 1.85308 80.8442 1.85308 C 81.0346 1.85308 81.6059 1.93365 81.7963 1.77251 C 81.9867 1.69194 82.558 1.53081 82.6849 1.53081 L 82.7484 1.61137 C 82.8754 1.77251 83.0023 1.93365 83.2562 1.85308 L 83.4466 1.85308 C 83.5736 1.69194 83.7005 1.53081 83.764 1.53081 L 84.0813 1.53081 C 84.3352 1.45024 84.7161 1.36967 84.9065 1.2891 L 85.0334 1.53081 C 85.1604 1.77251 85.4143 1.85308 85.6682 1.61137 L 86.8107 1.45024 L 87.1281 1.45024 C 87.5089 1.45024 87.8897 1.53081 88.0167 1.45024 C 88.1436 1.45024 88.461 1.69194 88.461 1.53081 C 88.461 1.36967 88.5879 1.2891 88.7149 1.53081 C 88.8418 1.77251 89.6035 1.53081 89.9209 1.53081 C 90.1748 1.53081 90.9999 1.36967 91.0634 1.2891 L 91.5077 1.69194 C 92.079 1.61137 92.6502 1.61137 92.6502 1.61137 C 92.8407 1.45024 92.9676 1.2891 93.2215 1.45024 L 93.3484 1.53081 C 93.6023 1.45024 93.9832 1.2891 94.2371 1.2891 L 94.7449 1.2891 C 95.0622 1.2891 95.3796 1.36967 95.4431 1.45024 C 95.5065 1.53081 95.697 1.61137 95.697 1.61137 C 95.697 1.53081 95.9509 1.36967 96.0778 1.36967 C 96.2682 1.36967 96.776 1.2891 96.903 1.36967 L 96.903 1.77251 C 97.0934 1.69194 97.4742 1.61137 97.7281 1.53081 L 97.982 1.69194 C 98.1089 1.77251 98.2994 1.77251 98.3628 1.69194 C 98.5532 1.53081 98.7437 1.53081 98.9976 1.53081 L 99.188 1.53081 C 99.4419 1.45024 99.6958 1.36967 99.7593 1.2891 C 99.8862 1.2891 100.204 1.45024 100.394 1.45024 C 100.584 1.45024 101.092 1.36967 101.219 1.36967 C 101.283 1.36967 101.537 1.20853 101.6 1.2891 C 101.663 1.36967 102.108 1.69194 102.425 1.93365 L 102.489 1.2891 C 102.489 1.2891 102.679 1.20853 102.742 1.2891 L 103.25 1.53081 C 103.504 1.45024 104.075 1.36967 104.52 1.2891 L 105.028 1.2891 C 105.091 1.45024 105.535 1.53081 106.043 1.45024 L 106.487 1.45024 C 106.614 1.45024 106.614 1.69194 106.424 1.77251 L 106.36 1.85308 C 106.234 1.85308 106.234 1.93365 106.36 2.01422 C 106.487 2.09479 106.741 2.09479 106.741 1.93365 C 106.741 1.77251 106.868 1.2891 107.059 1.2891 C 107.249 1.2891 107.884 1.45024 108.074 1.45024 L 108.265 1.45024 C 108.455 1.45024 108.709 1.45024 108.899 1.53081 L 109.217 1.69194 C 109.534 1.53081 109.851 1.36967 110.042 1.2891 C 110.169 1.20853 110.423 1.61137 110.423 1.61137 C 110.423 1.61137 110.613 1.53081 110.677 1.45024 L 110.804 1.61137 C 110.994 1.77251 111.121 1.77251 111.184 1.45024 L 111.184 1.36967 C 111.311 1.2891 111.502 1.2891 111.565 1.45024 C 111.629 1.61137 112.137 1.53081 112.39 1.45024 C 112.644 1.45024 113.406 1.36967 113.533 1.36967 L 113.596 1.20853 C 113.596 1.20853 113.85 1.12796 113.85 1.20853 C 113.914 1.2891 113.914 1.61137 114.168 1.45024 L 114.295 1.36967 C 114.358 1.12796 114.612 1.04739 114.866 1.20853 L 115.12 1.36967 C 115.183 1.36967 115.818 1.2891 115.881 1.2891 C 116.072 1.12796 116.262 0.886256 116.326 1.36967 C 116.389 1.36967 116.516 1.45024 116.643 1.45024 C 116.77 1.45024 117.151 1.53081 117.151 1.53081 C 117.214 1.45024 117.341 1.2891 117.341 1.20853 C 117.341 1.20853 117.532 1.04739 117.722 0.966825 C 117.913 0.886256 118.357 1.12796 118.42 1.04739 C 118.42 0.966825 118.738 0.966825 118.801 1.04739 C 118.865 1.12796 119.246 1.36967 119.372 1.2891 C 119.436 1.20853 119.753 1.04739 119.817 1.12796 C 119.88 1.20853 120.071 1.2891 120.134 1.20853 C 120.134 1.12796 120.325 0.966825 120.452 1.12796 L 120.832 1.12796 C 120.896 1.2891 121.023 1.36967 121.15 1.20853 C 121.213 1.04739 121.531 0.725119 121.531 0.805687 C 121.531 0.886256 160.966 0.966825 161.03 0.966825 C 161.157 0.886256 161.411 0.805687 161.474 0.886256 L 161.474 0.966825 C 161.538 1.20853 161.728 1.20853 161.791 1.04739 C 161.855 0.64455 162.109 0.64455 162.299 0.805687 L 162.49 0.966825 C 162.68 0.886256 162.997 0.805687 163.251 0.725119 L 163.442 0.966825 C 163.632 1.20853 163.823 1.2891 164.076 1.04739 C 164.076 1.04739 164.203 1.04739 164.203 1.12796 L 164.394 1.36967 C 164.457 1.2891 164.584 1.12796 164.648 0.966825 L 164.965 0.966825 C 165.282 1.04739 165.536 1.04739 165.6 1.04739 C 165.663 1.04739 165.854 0.966825 165.981 0.966825 C 166.108 0.966825 166.552 1.2891 166.742 1.12796 C 166.869 1.04739 167.377 0.886256 167.441 1.04739 C 167.504 1.20853 168.075 0.886256 168.393 0.886256 C 168.647 0.886256 169.345 1.04739 169.345 0.966825 C 169.345 0.886256 169.472 0.563981 169.535 0.725119 L 169.535 0.886256 C 169.535 0.966825 169.726 1.04739 169.979 1.04739 C 170.17 1.04739 170.678 1.2891 170.551 1.36967 C 170.424 1.45024 169.027 1.53081 168.71 1.61137 C 168.393 1.69194 168.456 1.85308 168.647 1.85308 L 168.837 1.93365 C 168.9 1.85308 169.091 1.69194 169.218 1.61137 C 169.408 1.53081 169.599 2.09479 169.726 2.09479 C 169.789 2.09479 169.916 1.93365 169.853 1.77251 L 169.853 1.69194 C 169.916 1.36967 169.916 1.45024 169.726 1.36967 L 169.599 0.886256 C 169.408 0.966825 169.154 1.04739 169.154 1.04739 L 169.091 1.04739 L 168.837 1.20853 C 169.091 1.12796 169.472 1.20853 169.726 1.36967 C 169.979 1.53081 170.487 1.61137 170.678 1.53081 C 170.805 1.45024 171.376 1.61137 171.503 1.53081 C 171.63 1.45024 171.63 1.12796 171.566 1.04739 C 171.566 1.04739 171.312 0.886256 171.249 0.886256 C 171.122 0.886256 170.995 0.805687 171.122 0.725119 C 171.249 0.64455 171.693 0.322275 171.693 0.322275 C 171.693 0.241706 172.011 0.322275 172.074 0.322275 C 172.138 0.322275 172.328 0.64455 172.391 0.725119 C 172.455 0.886256 173.026 1.12796 173.026 1.20853 C 173.09 1.2891 173.153 0.966825 173.09 0.886256 L 173.026 0.886256 L 172.836 0.805687 C 172.645 0.725119 172.518 0.563981 172.582 0.402844 L 172.582 0.322275 C 172.518 0.241706 172.455 0.0805687 172.645 0.161137 L 172.899 0.241706 C 173.217 0.322275 173.597 0.402844 173.724 0.402844 C 173.915 0.483412 174.677 0.241706 174.74 0.161137 C 174.867 0.0805687 175.057 0.0805687 175.248 0 L 175.375 0.0805687 L 175.438 0.0805687 L 175.502 0.161137 C 175.629 0.322275 175.756 0.322275 175.819 0.241706 C 175.883 0.161137 176.2 0.161137 176.327 0.241706 C 176.454 0.322275 176.962 0.161137 177.152 0.322275 L 177.342 0.483412 C 177.342 0.483412 177.279 0.64455 177.279 0.725119 L 177.279 0.805687 C 177.279 0.886256 177.342 0.805687 177.406 0.64455 C 177.469 0.483412 177.914 0.322275 177.85 0.322275 C 177.85 0.241706 177.914 0.161137 178.041 0.161137 C 178.168 0.161137 178.739 0.402844 178.993 0.483412 C 179.247 0.563981 179.945 0.322275 179.945 0.402844 C 179.945 0.483412 180.135 0.483412 180.072 0.563981 C 180.072 0.64455 179.881 0.725119 179.818 0.805687 C 179.754 0.886256 179.945 1.45024 180.326 1.53081 L 180.453 1.20853 L 180.58 0.966825 C 180.389 0.563981 180.389 0.241706 180.643 0.241706 L 180.706 0.322275 C 180.833 0.483412 180.897 0.725119 181.151 0.725119 C 181.151 0.725119 181.151 0.725119 181.151 0.805687 C 181.214 1.20853 181.214 1.20853 181.595 1.2891 L 181.786 1.2891 C 182.039 1.36967 182.23 1.2891 182.23 1.12796 C 182.23 0.966825 182.293 0.483412 182.42 0.483412 L 182.547 0.64455 C 182.674 0.805687 182.674 0.966825 182.547 1.04739 C 182.42 1.04739 182.42 1.53081 182.547 1.53081 C 182.674 1.53081 182.992 1.2891 183.055 1.2891 C 183.118 1.36967 183.309 1.53081 183.372 1.45024 L 183.436 1.45024 C 183.499 1.36967 183.563 1.2891 183.626 1.20853 C 183.69 1.12796 184.007 1.45024 184.071 1.36967 C 184.134 1.2891 184.388 1.04739 184.515 1.12796 C 184.642 1.20853 185.023 1.2891 185.086 1.20853 C 185.15 1.12796 185.34 0.966825 185.404 1.04739 C 185.404 1.12796 185.594 1.45024 185.657 1.45024 L 185.721 1.45024 L 186.165 1.20853 C 186.546 1.45024 186.927 1.69194 186.99 1.69194 C 187.054 1.77251 187.244 1.85308 187.244 1.77251 C 187.244 1.77251 187.308 1.53081 187.308 1.45024 C 187.308 1.2891 187.689 1.45024 187.815 1.45024 C 187.942 1.53081 188.196 1.45024 188.196 1.53081 C 188.196 1.61137 188.577 1.45024 188.641 1.36967 C 188.768 1.2891 189.212 1.20853 189.339 1.12796 L 189.402 1.04739 C 189.466 1.04739 189.529 0.966825 189.529 0.966825 L 189.91 1.36967 C 189.974 0.966825 190.164 0.725119 190.354 0.805687 C 190.545 0.886256 190.862 1.45024 190.862 1.36967 C 190.862 1.2891 190.926 1.12796 190.989 1.04739 C 191.116 1.20853 191.307 1.2891 191.433 1.45024 C 191.497 1.53081 191.37 1.61137 191.37 1.77251 L 191.37 1.85308 C 191.37 1.93365 191.497 2.09479 191.56 2.09479 L 191.624 2.01422 C 191.878 1.77251 192.005 1.85308 192.068 2.17536 C 192.195 2.17536 192.322 2.09479 192.322 2.01422 C 192.322 1.93365 192.322 1.69194 192.259 1.69194 C 192.195 1.69194 192.322 1.36967 192.449 1.36967 C 192.576 1.36967 192.83 1.77251 192.893 2.01422 L 192.893 2.25592 C 192.893 2.33649 192.766 2.49763 192.639 2.49763 L 192.322 2.49763 C 191.941 2.41706 191.624 2.49763 191.687 2.5782 C 191.687 2.73934 192.259 2.81991 192.322 2.90047 C 192.386 3.06161 192.449 3.30332 192.449 3.38389 C 192.449 3.46446 192.322 3.78673 192.259 3.94787 L 192.195 4.109 C 192.068 4.27014 191.941 4.43128 191.751 4.51185 C 191.751 4.51185 191.687 4.35071 191.687 4.18957 C 191.687 4.02844 191.433 3.54502 191.307 3.62559 C 191.18 3.70616 190.926 4.02844 190.989 4.109 L 191.116 4.27014 C 191.18 4.35071 191.243 4.43128 191.18 4.43128 C 191.116 4.51185 191.053 4.67299 191.116 4.75355 C 191.18 4.83412 192.322 4.99526 192.259 5.07583 C 192.195 5.07583 192.132 5.23697 192.259 5.1564 C 192.449 5.1564 192.576 5.55924 192.639 5.55924 C 192.703 5.55924 192.83 5.47867 192.83 5.47867 C 192.83 5.3981 192.83 5.31754 192.957 5.3981 L 193.084 5.3981 C 193.401 5.63981 193.528 5.80095 193.401 5.80095 C 193.274 5.80095 192.893 5.96209 192.893 6.04265 C 192.893 6.12322 193.02 6.36493 193.147 6.52607 C 193.274 6.6872 193.782 6.76777 193.782 6.6872 C 193.782 6.60664 194.036 6.52607 194.226 6.60664 C 194.353 6.6872 194.671 6.6872 194.607 6.52607 C 194.544 6.36493 194.988 5.72038 195.178 5.3981 L 195.686 5.3981 C 195.75 5.1564 195.877 5.07583 195.877 5.1564 C 195.877 5.23697 196.004 5.55924 196.067 5.47867 C 196.13 5.3981 196.384 5.23697 196.575 5.3981 C 196.702 5.55924 197.21 5.80095 197.4 5.80095 C 197.527 5.72038 197.971 5.3981 198.352 5.47867 L 198.669 5.55924 C 198.669 5.55924 198.733 5.47867 198.733 5.3981 C 198.796 5.31754 198.86 5.23697 198.923 5.23697 L 199.114 5.23697 C 199.05 5.3981 198.987 5.63981 198.923 5.72038 C 198.86 5.80095 198.923 6.28436 199.241 6.4455 L 199.431 5.96209 C 199.495 5.88152 199.685 5.80095 199.812 5.72038 C 199.875 5.72038 200.002 5.80095 200.002 5.88152 C 200.066 5.96209 200.066 6.12322 200.193 5.96209 C 200.32 5.88152 200.447 5.80095 200.51 5.96209 C 200.574 6.12322 200.637 6.28436 200.574 6.36493 C 200.51 6.60664 200.32 6.76777 200.193 6.92891 L 200.066 7.09005 C 200.129 7.25119 200.447 7.49289 200.637 7.65403 C 200.891 7.7346 201.335 7.81517 201.526 7.81517 C 201.716 7.81517 202.351 8.29858 202.478 8.45972 C 202.605 8.62085 203.113 8.70142 203.176 8.78199 C 203.24 8.86256 203.176 9.18484 203.176 9.50711 L 203.366 9.82939 L 203.43 9.90995 C 203.493 10.0711 203.366 10.2322 203.176 10.3128 L 203.049 10.4739 C 202.859 10.7156 202.859 10.7156 202.732 10.5545 L 202.668 10.4739 L 202.414 10.5545 C 202.287 10.7962 202.16 10.8768 202.097 10.7156 C 202.034 10.5545 201.462 10.5545 201.335 10.5545 C 201.208 10.5545 200.764 10.7962 200.954 10.8768 C 201.145 10.9573 201.526 11.2796 201.462 11.4408 L 201.653 11.5213 L 201.907 11.6825 C 202.097 11.4408 202.224 11.2796 202.224 11.2796 C 202.224 11.2796 202.351 11.4408 202.478 11.5213 C 202.605 11.5213 202.478 12.0047 202.287 12.0047 L 202.034 12.327 C 201.907 12.5687 201.907 12.8104 201.97 12.891 C 202.034 12.891 202.097 13.2133 201.907 13.455 C 201.716 13.6967 201.272 14.2607 201.335 14.2607 C 201.399 14.2607 201.526 14.4218 201.462 14.5829 L 201.272 14.5829 C 201.145 14.6635 200.954 14.8246 200.891 15.0664 L 201.081 15.2275 C 201.145 15.3081 200.891 16.2749 200.828 16.2749 L 200.637 16.436 C 200.447 16.5972 200.32 16.7583 200.32 16.9194 C 200.32 17 200.066 17.4028 200.002 17.564 L 199.748 17.8863 C 199.875 18.128 199.939 18.5308 199.939 18.7725 L 199.875 19.0142 L 199.812 19.3365 C 200.066 19.3365 200.129 19.4976 200.002 19.5782 C 199.875 19.6588 199.431 19.981 199.241 19.981 L 198.733 19.981 C 198.542 20.2228 198.289 20.3839 198.162 20.4645 C 197.971 20.1422 197.781 20.6256 197.59 20.4645 C 197.4 20.3033 197.21 20.3033 197.019 20.2227 C 196.956 20.4645 196.765 20.545 196.575 20.3839 C 196.384 20.3033 195.94 20.545 195.94 20.545 C 195.813 20.3839 195.623 20.545 195.496 20.4645 L 195.242 20.3033 C 195.051 20.4645 194.671 20.3839 194.417 20.3033 L 194.163 20.545 L 194.099 20.6256 C 193.972 20.6256 193.592 20.4645 193.274 20.3033 L 192.957 20.545 L 192.893 20.6256 C 192.766 20.6256 192.576 20.6256 192.449 20.6256 C 192.322 20.6256 191.878 20.4645 191.814 20.4645 C 191.687 20.4645 191.37 20.4645 191.243 20.545 C 191.116 20.6256 190.545 20.545 190.354 20.545 L 190.101 20.545 C 189.974 20.545 189.847 20.545 189.783 20.4645 L 189.593 20.3033 C 189.466 20.3839 189.148 20.545 188.895 20.6256 L 188.704 20.7062 C 188.641 20.7062 188.577 20.7867 188.577 20.8673 L 188.45 21.0284 C 188.387 20.8673 188.26 20.7867 188.196 20.7867 C 188.133 20.7867 187.879 21.1896 187.879 21.5119 L 187.879 21.9147 C 187.435 21.9147 186.99 21.9953 186.927 21.9953 L 186.99 21.9147 L 187.371 21.5119 C 187.371 21.8341 187.435 22.0758 187.562 22.0758 C 187.689 22.0758 187.689 21.673 187.689 21.5119 C 187.689 21.3507 187.498 20.9479 187.435 20.9479 C 187.371 20.8673 187.117 21.109 186.99 21.2701 C 186.863 21.4313 187.562 21.9953 188.069 22.1564 L 188.196 21.9953 L 188.387 21.8341 C 188.514 21.5119 188.831 21.3507 189.021 21.4313 C 189.212 21.5119 189.72 21.8341 189.72 21.5924 L 189.783 21.4313 L 189.783 21.3507 C 189.91 21.3507 190.037 21.3507 190.037 21.4313 C 190.037 21.5119 190.037 21.673 190.101 21.673 C 190.164 21.673 190.418 21.7536 190.354 21.8341 L 190.101 21.8341 C 189.91 21.9953 189.847 22.237 190.037 22.237 L 190.101 22.1564 L 190.354 21.9147 C 190.608 21.9147 190.989 21.9953 191.116 21.9953 C 191.243 22.0758 191.624 21.7536 191.687 21.7536 L 191.751 21.7536 L 191.878 21.8341 C 192.005 21.9147 192.259 21.9953 192.449 21.9147 L 192.576 22.0758 C 192.639 22.1564 192.766 22.0758 192.83 22.0758 L 192.893 22.0758 C 192.957 22.0758 193.02 22.1564 193.02 22.237 L 193.02 22.3981 C 193.02 22.5592 192.893 22.801 192.766 23.0427 L 192.259 23.0427 C 191.878 23.0427 191.941 23.2844 192.386 23.6066 L 193.02 23.6066 C 193.147 23.4455 193.338 23.2844 193.465 23.2844 L 193.655 23.5261 C 193.655 23.8483 193.782 24.09 193.845 24.2512 L 193.972 24.2512 C 194.036 24.2512 194.099 24.09 194.036 24.0095 L 194.036 23.9289 C 193.972 23.8483 193.782 23.8483 193.655 23.9289 L 193.465 23.8483 C 193.338 23.8483 193.211 24.0095 192.957 23.9289 L 192.639 23.8483 C 192.195 23.9289 191.751 24.2512 191.624 24.4123 L 191.878 24.7346 C 192.005 24.7346 192.322 24.5735 192.576 24.2512 L 192.957 24.4123 L 193.592 24.8957 L 193.909 24.4929 C 193.782 24.2512 193.719 23.8483 193.782 23.7678 C 193.845 23.6066 194.226 23.3649 194.417 23.6066 L 194.48 23.7678 C 194.544 23.8483 194.48 24.0095 194.417 24.09 L 194.353 24.1706 C 194.29 24.5735 194.417 24.8957 194.607 24.8152 C 194.798 24.7346 195.115 25.3792 195.051 25.4597 C 194.988 25.5403 194.671 25.8626 194.861 25.782 C 195.051 25.7014 196.702 25.4597 197.019 25.3791 C 197.273 25.218 196.956 25.1374 196.575 25.218 L 196.257 25.3791 L 196.194 25.4597 C 196.067 25.4597 196.004 25.4597 196.004 25.3791 C 196.004 25.2986 196.004 25.1374 195.877 25.1374 C 195.75 25.2986 195.686 25.4597 195.559 25.6209 L 195.496 25.7014 C 195.559 25.8626 195.813 26.0237 196.004 26.1043 C 196.194 26.1848 196.511 25.7014 196.575 25.7014 C 196.638 25.6209 196.765 25.7014 196.829 26.0237 L 197.146 25.8626 L 197.336 25.782 C 196.956 25.7014 196.321 25.6209 196.004 25.4597 C 195.686 25.3792 195.686 24.9763 195.813 24.8957 C 195.877 24.8152 196.13 24.4929 196.13 24.4929 C 196.194 24.654 196.194 24.8957 196.257 24.9763 L 196.511 25.1374 C 196.511 24.8957 196.575 24.654 196.638 24.5735 C 196.702 24.4929 197.463 24.654 197.971 24.8152 L 198.479 24.4929 L 198.669 24.4123 C 198.669 24.5735 198.669 24.8152 198.733 24.8152 C 198.796 24.8957 199.05 24.9763 199.05 24.8957 C 199.05 24.7346 199.304 24.5735 199.495 24.654 C 199.685 24.7346 199.558 25.3792 199.622 25.4597 C 199.748 25.5403 200.32 25.6209 200.828 25.3791 L 201.272 25.218 L 201.335 25.218 C 201.462 25.3791 201.653 25.5403 201.653 25.4597 C 201.716 25.3792 201.843 25.2986 201.843 25.218 L 201.653 25.0569 C 201.462 24.8957 201.208 24.8152 201.081 24.8152 L 200.954 24.8152 C 200.891 24.8152 200.828 24.8152 200.764 24.8152 C 200.383 24.5735 200.447 24.8957 200.447 25.1374 L 200.447 25.218 C 200.383 25.2986 200.383 25.218 200.383 25.0569 C 200.383 24.8957 200.002 24.8957 199.939 24.8152 L 199.939 24.7346 C 199.939 24.654 200.066 24.5735 200.129 24.5735 C 200.32 24.654 200.51 24.2512 200.764 24.5735 C 201.018 24.4123 201.272 24.3318 201.272 24.4929 L 201.335 24.5735 L 201.399 24.5735 C 201.526 24.4929 201.716 24.4123 201.843 24.3318 C 201.97 24.2512 202.351 24.09 202.351 24.2512 C 202.414 24.4123 202.541 24.7346 202.605 24.654 L 202.668 24.654 L 202.986 24.5735 C 203.366 24.4123 203.811 24.4123 204.001 24.4929 C 204.001 24.8152 204.128 25.1374 203.874 25.3791 C 203.874 25.3791 203.874 25.5403 203.938 25.6209 C 204.001 25.6209 204.128 25.6209 204.128 25.6209 C 204.192 25.4597 204.255 25.2986 204.382 25.218 L 204.446 25.1374 C 204.509 25.0569 204.572 25.0569 204.636 25.1374 C 204.636 25.218 204.826 25.5403 204.89 25.5403 C 204.953 25.5403 205.207 25.5403 205.271 25.6209 C 205.334 25.7014 205.525 25.782 205.588 25.782 C 205.588 25.7014 205.715 25.6209 205.778 25.7014 C 205.842 25.782 206.223 25.9431 206.35 25.7014 L 206.54 25.5403 C 206.667 25.7014 206.731 25.8626 206.667 25.9431 C 206.604 26.0237 206.477 26.2654 206.604 26.2654 C 206.731 26.2654 206.984 26.4265 206.921 26.5071 C 206.857 26.5877 206.857 26.91 206.984 26.9905 C 207.111 27.0711 207.238 27.2322 206.921 27.3934 L 206.667 27.5545 C 206.604 27.6351 206.477 27.7156 206.477 27.7962 C 206.477 27.8768 206.477 28.0379 206.477 28.1185 C 206.54 28.1991 206.667 28.1991 206.794 28.1991 L 206.984 28.1185 C 206.984 27.9573 207.048 27.7156 207.111 27.6351 L 207.175 27.6351 C 207.365 27.5545 208 27.7962 208 28.0379 L 208 28.1185 C 207.873 28.1991 207.683 28.3602 207.556 28.4408 C 207.429 28.5213 207.111 28.9242 207.111 28.9242 C 207.111 29.0047 206.984 29.0047 206.921 28.763 L 206.731 28.763 C 206.54 28.9242 206.54 29.0853 206.604 29.1659 C 206.667 29.2464 206.984 29.8104 206.984 30.2133 L 206.984 31.0995 C 206.604 31.3412 206.286 31.5024 206.286 31.4218 C 206.286 31.3412 206.159 31.1801 206.096 31.2607 C 206.032 31.3412 206.032 31.7441 205.969 31.7441 C 205.905 31.7441 205.651 31.9052 205.778 32.0664 L 205.842 32.0664 C 205.969 32.0664 206.159 31.9052 206.286 31.9052 C 206.413 31.9052 206.604 31.8246 206.604 32.0664 C 206.604 32.2275 206.54 32.3886 206.477 32.3886 L 206.223 32.4692 C 205.969 32.5498 205.715 32.3081 205.778 31.9052 L 205.334 31.9858 L 205.017 32.0664 C 205.144 32.3886 205.144 32.6303 205.017 32.6303 C 204.89 32.6303 204.446 32.6303 204.446 32.4692 C 204.446 32.3886 204.319 32.2275 204.192 32.3081 C 204.065 32.4692 203.747 32.7915 203.747 32.6303 C 203.747 32.5498 203.62 32.2275 203.557 32.3081 C 203.493 32.3886 202.986 32.6303 202.668 32.6303 L 202.16 32.9526 C 201.907 32.9526 201.526 32.9526 201.272 32.9526 L 200.954 32.9526 C 200.891 32.9526 200.574 32.9526 200.32 32.872 C 200.066 32.7915 199.304 33.0332 199.241 32.9526 C 199.177 32.9526 198.86 32.872 198.733 32.872 C 198.606 32.872 198.162 32.872 198.035 32.7915 C 197.908 32.7109 197.4 33.1137 197.21 33.1943 L 197.146 32.7915 L 197.146 32.6303 C 196.956 32.7109 196.765 32.7915 196.638 32.872 C 196.511 32.9526 196.321 33.1137 196.257 33.0332 C 196.194 32.9526 195.686 33.0332 195.559 33.1137 C 195.432 33.1137 194.988 33.0332 194.924 33.0332 C 194.861 33.0332 194.607 33.1943 194.544 33.2749 C 194.48 33.3554 194.226 33.1943 194.163 33.1943 C 194.099 33.1943 193.719 33.2749 193.528 33.3554 C 193.274 33.5166 192.513 33.1137 192.259 33.1137 C 192.005 33.1137 191.37 33.5166 191.307 33.5166 C 191.18 33.5166 190.799 33.5166 190.672 33.6777 L 190.354 33.436 C 190.227 33.3555 189.91 33.5166 189.72 33.5166 C 189.529 33.5166 189.339 33.436 189.148 33.436 C 189.021 33.436 188.895 33.5166 188.704 33.5166 L 188.387 33.5972 C 188.387 33.3554 188.387 33.2749 188.387 33.436 C 188.387 33.5972 187.879 33.436 187.689 33.5166 L 187.498 33.5166 L 186.8 33.436 C 186.038 33.3555 185.213 33.3554 184.896 33.3554 C 184.642 33.3554 183.88 33.5972 183.817 33.5972 C 183.753 33.5972 183.499 33.6777 183.245 33.6777 L 183.182 33.5972 C 182.992 33.3554 182.738 33.5972 182.547 33.5166 L 182.293 33.3554 C 182.039 33.3554 181.722 33.3554 181.532 33.3554 C 181.405 33.3554 180.833 33.5972 180.453 33.6777 L 180.135 33.5166 L 179.945 33.436 C 179.627 33.5166 179.31 33.5166 179.183 33.5166 C 179.056 33.436 178.802 33.5972 178.739 33.5166 C 178.675 33.436 178.421 33.2749 178.294 33.3554 C 178.168 33.436 177.66 33.6777 177.533 33.6777 C 177.406 33.6777 177.025 33.5972 176.962 33.5166 C 176.835 33.436 176.263 33.6777 175.883 33.7583 C 175.502 33.8389 174.55 33.5972 174.486 33.6777 C 174.423 33.7583 174.105 33.5166 173.978 33.5166 C 173.915 33.5166 173.661 33.5972 173.661 33.5166 C 173.597 33.436 173.534 33.3555 173.471 33.436 C 173.471 33.5166 173.217 33.5972 173.09 33.5166 C 172.899 33.436 172.391 33.6777 172.265 33.6777 L 172.201 33.5972 C 171.884 33.3554 171.693 33.3554 171.376 33.5972 C 171.122 33.7583 170.868 33.3555 170.678 33.436 C 170.424 33.5972 170.17 33.6777 169.979 33.5972 C 169.789 33.5166 169.726 33.5166 169.599 33.5972 C 169.535 33.5972 169.281 33.5166 169.281 33.5166 C 169.154 33.7583 169.027 33.436 168.9 33.5166 C 168.773 33.6777 168.773 33.5972 168.647 33.5166 L 168.456 33.3554 C 168.202 33.436 167.631 33.5166 167.187 33.5972 C 166.742 33.6777 165.282 33.5972 165.092 33.6777 L 164.394 33.6777 C 163.886 33.6777 163.315 33.7583 163.188 33.8389 C 163.061 33.9194 162.426 33.7583 162.172 33.6777 L 161.918 33.6777 C 161.664 33.6777 161.347 33.6777 161.03 33.6777 L 121.594 33.6777 C 121.531 33.5166 121.467 33.436 121.404 33.436 C 121.404 33.436 121.213 33.5166 121.15 33.5972 C 121.086 33.6777 120.769 33.8389 120.705 33.7583 C 120.642 33.6777 120.007 33.8389 119.563 33.8389 C 119.119 33.8389 117.849 33.6777 117.722 33.6777 C 117.595 33.6777 117.087 33.8389 116.961 33.6777 C 116.834 33.5972 116.326 33.8389 116.135 33.8389 C 116.008 33.8389 115.437 33.9194 115.247 33.9194 C 115.056 33.9194 114.485 33.7583 114.358 33.7583 C 114.231 33.8389 113.723 33.8389 113.596 33.7583 C 113.469 33.6777 112.771 33.8389 112.517 33.7583 L 112.263 33.6777 L 112.073 33.5972 C 111.692 33.6777 111.057 33.8389 110.613 33.8389 C 110.169 33.8389 108.646 33.9194 108.328 33.9194 L 108.201 33.436 C 107.947 33.436 107.82 33.5166 107.82 33.5972 C 107.82 33.6777 107.82 33.8389 107.693 33.8389 C 107.566 33.8389 106.995 33.9194 106.805 34 L 106.424 33.7583 C 106.36 33.6777 106.234 33.5166 106.107 33.5166 C 106.043 33.5972 105.98 33.7583 105.98 33.7583 L 105.281 33.5972 C 104.52 33.7583 103.885 33.7583 103.885 33.6777 C 103.885 33.5972 103.695 33.2749 103.568 33.3554 L 103.441 33.3554 C 103.123 33.3554 103.25 33.5972 103.123 33.6777 C 102.996 33.7583 102.869 33.6777 102.742 33.7583 C 102.616 33.7583 102.425 33.8389 102.298 33.9194 L 102.235 33.9194 C 102.108 33.8389 101.917 33.8389 101.79 33.7583 C 101.663 33.6777 101.283 33.8389 101.156 33.8389 C 101.092 33.9194 100.648 33.7583 100.521 33.8389 C 100.394 33.9194 99.6958 33.9194 99.3149 34 L 98.9976 33.6777 C 98.9341 33.5972 98.6802 33.5972 98.6167 33.6777 L 98.2994 33.9194 C 97.982 33.8389 97.6012 33.6777 97.4107 33.6777 L 97.4107 33.7583 C 97.2203 34.1611 96.9664 33.6777 96.776 33.8389 L 96.5856 34 C 96.3952 33.8389 95.9509 33.6777 95.6335 33.5972 L 95.3796 33.8389 L 95.1892 34 C 95.0622 33.7583 94.7449 33.5972 94.5544 33.6777 L 94.491 33.7583 C 94.364 34 94.2371 33.6777 94.1101 33.7583 L 94.0467 33.7583 C 93.9832 33.7583 93.7293 33.7583 93.4754 33.6777 C 93.2215 33.5972 91.8251 33.8389 91.7616 33.8389 C 91.5712 33.6777 91.3808 33.5166 91.1904 33.7583 C 90.9365 34 90.9365 33.5972 90.6826 33.6777 L 90.4921 33.7583 C 90.2383 33.6777 89.7305 33.5972 89.2862 33.6777 L 88.9053 33.6777 C 88.6514 33.6777 88.3341 33.7583 88.2706 33.5972 L 88.0802 33.2749 C 87.8897 33.436 87.6993 33.5166 87.6358 33.5166 C 87.5724 33.5166 87.3185 33.5166 87.1281 33.5166 L 86.9376 33.5166 C 86.8107 33.5166 86.6203 33.5972 86.4933 33.6777 C 86.4299 33.5972 86.3664 33.436 86.3029 33.3554 C 86.2394 33.2749 86.049 33.5166 85.9855 33.6777 L 85.6047 33.6777 C 85.3508 33.6777 84.97 33.7583 84.7161 33.7583 L 84.2083 33.5972 C 83.9544 33.5972 83.7005 33.5166 83.637 33.436 C 83.637 33.3555 83.5736 33.1137 83.5736 33.1137 C 83.5736 33.1137 83.5101 33.1943 83.5101 33.2749 C 83.5101 33.3554 83.3197 33.6777 83.1927 33.5972 L 83.1292 33.5166 C 82.8753 33.1943 82.8754 33.1943 82.558 33.5166 L 82.4945 33.5166 C 82.431 33.5166 82.1771 33.5972 81.8598 33.5972 C 81.5424 33.5972 80.7173 33.2749 80.5903 33.3554 C 80.4634 33.436 80.2729 33.2749 80.3999 33.1943 C 80.4634 33.1137 80.6538 32.7915 80.4634 32.872 C 80.2729 32.9526 79.8921 33.2749 79.8286 33.3554 L 79.7652 33.3554 C 79.6382 33.3554 79.5113 33.2749 79.3843 33.2749 C 79.2574 33.2749 79.1304 33.3554 79.067 33.3554 C 78.94 33.3554 78.7496 33.3554 78.6226 33.3554 L 78.2418 33.1137 C 77.7975 33.1943 77.3532 33.3554 77.2262 33.3554 L 77.0993 33.2749 C 76.9089 33.1943 76.4645 33.1137 76.2741 33.1943 L 75.8933 33.3554 C 75.5759 33.1943 75.2586 33.1137 75.1951 33.1943 C 75.1316 33.2749 74.3064 33.1943 73.7987 33.1943 L 73.037 33.1943 C 72.6562 33.1943 72.0849 33.2749 71.7675 33.3554 L 71.4502 33.2749 C 71.2597 33.1943 70.8154 33.0332 70.6885 32.9526 C 70.625 32.872 70.4346 32.9526 70.4346 32.9526 C 70.3711 33.2749 70.2442 33.3555 69.9903 33.1137 C 69.9903 33.1137 69.6729 33.1943 69.3555 33.2749 L 69.1016 33.1943 C 68.7843 33.1137 68.5304 33.0332 68.2765 33.2749 C 68.213 33.3554 68.0226 33.2749 67.8957 33.1943 L 67.7687 33.1943 C 67.6418 33.1137 67.4513 33.1943 67.3879 33.2749 C 67.2609 33.3554 66.6897 33.1943 66.5627 33.1943 C 66.4358 33.1943 65.7376 33.1943 65.4202 33.2749 L 65.1663 33.0332 C 65.1663 33.0332 65.1028 33.1137 65.0394 33.1137 L 64.3411 33.2749 C 63.9603 33.1943 63.5795 33.1137 63.516 33.0332 C 63.4525 33.0332 62.9447 33.1137 62.5004 33.1137 L 62.0561 33.1943 L 61.9926 33.1943 C 61.9292 33.0332 61.8022 32.9526 61.8022 33.0332 C 61.8022 33.1943 61.0405 33.2749 60.5962 33.2749 L 60.3423 33.1137 C 60.2154 33.1943 59.9615 33.1943 59.7076 33.1943 L 59.4537 33.1137 C 59.2633 33.0332 59.1363 33.5166 58.8824 33.1943 C 58.819 33.1137 58.692 33.1943 58.6286 33.1943 C 58.5651 33.1943 58.5016 33.2749 58.4381 33.1943 L 58.3112 33.1943 C 58.1842 33.1943 57.9303 33.1943 57.7399 33.2749 L 57.613 33.1137 C 57.4226 32.7915 57.2956 33.2749 57.0417 33.1137 C 56.7878 32.9526 56.9148 32.6303 56.7878 32.4692 C 56.7244 32.3886 56.5339 32.3886 56.407 32.4692 L 56.2166 32.5498 C 56.0261 32.7109 55.8992 32.872 55.9627 32.9526 C 56.0261 32.9526 55.9627 33.1137 55.7723 33.1137 L 55.5818 33.0332 C 55.4549 33.0332 55.3279 32.9526 55.201 32.9526 L 54.8202 32.9526 C 54.5663 32.6303 54.3758 32.4692 54.3758 32.6303 C 54.3758 32.7109 54.1854 33.1943 53.9315 33.1943 C 53.6776 33.1943 53.1698 32.872 53.1698 32.872 L 53.0429 33.0332 C 52.9794 33.0332 52.7255 33.1137 52.4716 33.1137 C 52.2178 33.1137 51.5195 32.9526 51.4561 32.872 C 51.3926 32.7915 51.1387 32.7915 51.1387 32.872 C 51.1387 32.9526 50.7579 33.0332 50.7579 32.9526 C 50.7579 32.9526 50.6944 32.7109 50.6309 32.4692 L 50.2501 32.7109 C 50.0597 32.872 49.8692 32.872 49.6788 32.9526 L 49.5519 32.9526 C 49.3615 32.9526 49.2345 32.7915 49.2345 32.6303 L 49.2345 32.4692 C 49.2345 32.3081 49.2345 32.1469 49.0441 32.1469 C 48.7902 32.1469 48.9171 32.3886 48.9171 32.4692 L 48.9171 32.5498 C 48.8537 32.6303 48.7902 32.6303 48.7267 32.5498 C 48.6632 32.4692 48.4094 32.3886 48.2824 32.5498 L 48.2824 32.7915 C 48.2189 32.872 48.1555 32.872 48.092 32.872 L 48.0285 32.872 C 47.965 32.7915 47.9016 32.6303 47.8381 32.4692 C 47.7746 32.3081 47.4573 32.2275 47.5207 32.3081 C 47.5842 32.3886 47.5207 32.7109 47.1399 32.9526 L 46.8225 32.6303 L 46.6956 32.4692 C 46.5686 32.5498 46.3782 32.6303 46.2513 32.7109 C 46.1243 32.7915 45.5531 32.4692 45.4896 32.4692 L 45.3626 32.4692 C 45.2992 32.4692 45.2992 32.5498 45.2992 32.6303 C 45.2992 32.6303 45.1087 32.872 44.7279 32.9526 L 44.5375 32.7915 L 44.2201 32.6303 C 43.9027 32.7109 43.7123 32.7109 43.7123 32.6303 C 43.7758 32.5498 43.5854 32.0664 43.2045 31.8246 L 42.7602 32.1469 L 42.4429 32.3081 C 41.9986 32.1469 41.6812 31.9858 41.8081 31.9858 L 41.9351 31.6635 C 42.2524 31.7441 42.5063 31.8246 42.5698 31.8246 C 42.6333 31.8246 42.6333 31.5024 42.3159 31.5829 L 42.3159 31.5024 L 41.9351 31.1801 C 41.8081 31.5024 41.7447 31.6635 41.6812 31.5829 C 41.6812 31.5024 41.5542 31.3412 41.4908 31.3412 C 41.4273 31.3412 41.1734 31.5024 41.1734 31.5829 C 41.1734 31.6635 40.9195 31.9052 40.7926 31.9858 C 40.6656 32.1469 40.4117 32.7915 40.4117 32.6303 C 40.4117 32.4692 40.2213 32.1469 40.1578 32.1469 C 40.0309 32.1469 39.7135 32.0664 39.65 32.0664 C 39.5866 32.0664 39.3961 32.1469 39.5231 32.1469 C 39.5866 32.2275 39.8405 32.3886 39.9039 32.4692 L 39.9039 32.5498 C 39.9039 32.5498 39.8405 32.6303 39.777 32.6303 L 39.5866 32.5498 C 39.3327 32.4692 39.2057 32.3081 39.2057 32.1469 C 39.2057 31.9858 39.1423 31.7441 39.0153 31.8246 C 38.8884 31.9052 38.8249 32.3081 38.7614 32.3886 C 38.6979 32.4692 38.3171 32.4692 38.3171 32.4692 C 38.2536 32.4692 38.1902 32.1469 38.3171 31.9052 C 38.444 31.6635 38.5075 31.0995 38.3171 31.3412 C 38.1267 31.5829 37.6189 32.1469 37.4919 32.0664 C 37.365 31.9858 37.1111 32.3081 37.1111 32.3886 C 37.0476 32.4692 36.6033 32.5498 36.5398 32.3886 C 36.4764 32.2275 37.0476 31.9858 37.1746 31.9052 C 37.3015 31.8246 37.7458 31.6635 37.7458 31.5829 C 37.8093 31.5024 37.8093 31.2607 37.8093 31.1801 C 37.7458 31.1801 37.6189 31.1801 37.5554 31.1801 L 37.4285 31.3412 C 37.3015 31.5024 37.1746 31.6635 37.1746 31.6635 C 37.1111 31.6635 37.0476 31.5829 36.9842 31.4218 C 36.9842 31.3412 36.7937 31.019 36.7303 30.9384 C 36.6668 30.8578 36.4764 30.6161 36.4129 30.6967 C 36.3494 30.6967 36.159 30.9384 36.0321 31.0995 L 36.4764 31.0995 C 36.6033 31.3412 36.7303 31.5829 36.7303 31.5829 C 36.7303 31.5829 36.6033 31.7441 36.4764 31.7441 L 36.2225 31.7441 C 36.0955 31.7441 35.9686 31.8246 35.9686 31.9052 C 35.9051 31.9052 35.7147 31.8246 35.6512 31.9052 C 35.5877 31.9858 35.3973 31.9858 35.3339 31.9052 C 35.2704 31.7441 34.953 31.5024 34.7626 31.6635 L 34.5087 31.8246 C 34.3818 31.7441 34.1913 31.5829 34.0009 31.4218 L 33.747 31.0995 C 33.5566 31.1801 33.3027 31.3412 33.2392 31.4218 L 33.0488 31.6635 C 32.9219 31.9052 32.7314 31.9858 32.541 31.9052 C 32.3506 31.8246 32.0332 31.5024 31.9063 31.5024 C 31.7794 31.4218 31.462 31.4218 31.5255 31.5829 L 31.462 31.6635 C 31.3985 31.7441 31.2081 31.8246 31.1446 31.9052 C 31.2081 31.9858 31.2081 32.1469 31.1446 32.1469 C 31.0811 32.1469 30.9542 32.0663 30.8907 31.9858 C 30.8272 31.9052 30.3829 31.5024 30.0021 31.5829 L 30.0656 32.0664 C 30.0656 32.2275 29.6847 32.3081 29.6213 32.1469 C 29.5578 31.9858 29.5578 31.9052 29.7482 31.8246 C 29.8117 31.8246 29.9386 31.6635 29.8751 31.5829 L 29.8117 31.3412 C 29.7482 31.5024 29.4943 31.5829 29.3039 31.5024 C 29.1135 31.5024 28.5422 31.7441 28.4153 31.6635 L 28.3518 31.6635 C 28.2883 31.6635 28.0979 31.5829 28.0344 31.6635 L 27.7805 31.8246 C 27.5266 31.7441 27.2093 31.5829 27.2093 31.5829 C 27.1458 31.5829 26.8919 31.5829 26.638 31.6635 L 26.4476 31.5024 L 26.3841 31.4218 C 26.2572 31.3412 26.1302 31.4218 26.1302 31.5829 C 26.1302 31.6635 25.8763 32.0664 25.6224 32.0664 C 25.3685 32.0664 24.7973 31.9858 24.7338 32.0664 L 24.7338 32.1469 L 24.6703 32.2275 C 24.6069 32.3081 24.6069 32.3081 24.5434 32.2275 L 24.5434 32.1469 L 24.4799 32.3081 C 24.4164 32.2275 24.1626 32.2275 23.9087 32.3886 L 23.7182 32.1469 C 23.5913 32.3081 23.4009 32.3886 23.2739 32.3081 C 23.147 32.2275 22.8296 32.3081 22.6392 32.3081 C 22.4488 32.2275 21.941 32.4692 21.814 32.5498 C 21.6871 32.5498 21.2428 32.4692 21.0524 32.5498 L 20.8619 32.3081 L 20.6715 32.1469 C 20.4176 32.2275 20.0368 32.3886 19.7829 32.3886 L 19.4021 32.5498 C 19.2116 32.4692 18.9577 32.2275 18.8308 32.1469 L 18.6404 32.3886 C 18.5134 32.6303 18.3865 32.3081 18.2595 32.3081 C 18.1326 32.3081 17.8787 32.4692 17.8152 32.4692 C 17.5613 32.3081 17.3709 32.3081 17.117 32.3081 C 16.7997 32.3081 16.4823 32.1469 16.2284 32.4692 C 16.1649 32.4692 15.9745 32.3886 15.8476 32.3081 C 15.7206 32.2275 15.1493 32.1469 14.8955 32.3081 L 14.6416 32.2275 C 14.1972 32.1469 13.6895 31.9858 13.2451 31.8246 C 13.1182 31.8246 13.1182 31.5829 12.9913 31.5024 C 12.9278 31.4218 12.8643 31.3412 12.8008 31.3412 C 12.6739 31.3412 12.5469 31.4218 12.4835 31.4218 L 12.42 31.4218 C 12.3565 31.2607 12.2296 31.0995 12.0392 31.019 C 11.8487 30.9384 11.4044 31.019 11.2775 31.0995 L 11.1505 31.019 C 10.8966 30.8578 10.6427 30.7773 10.135 30.7773 C 10.0715 30.7773 10.008 30.6161 10.008 30.5355 C 10.135 30.3744 10.3254 30.2938 9.94454 30.2133 C 9.75412 30.2133 9.81759 29.9716 9.94454 29.891 L 10.008 29.8104 C 10.0715 29.7299 10.0715 29.5687 10.008 29.4882 C 9.94454 29.4076 10.1984 29.2464 10.2619 29.327 C 10.3254 29.4076 10.7062 29.2464 10.7697 29.4076 L 10.8332 29.4882 C 10.8966 29.5687 10.8332 29.6493 10.8332 29.7299 C 10.8332 29.8104 10.9601 29.8104 11.0236 29.891 L 11.0871 29.891 C 11.1505 29.891 11.2775 29.7299 11.4044 29.5687 C 11.5314 29.4076 11.7218 28.8436 11.6583 28.763 C 11.5948 28.6019 11.0871 28.763 10.9601 28.6825 L 10.9601 28.6019 L 10.8966 28.3602 C 10.7697 28.1185 10.6427 28.0379 10.5793 28.1991 C 10.5158 28.2796 10.4523 28.763 10.3254 28.6019 C 10.1984 28.4408 9.5637 28.1991 9.43675 28.1185 C 9.3098 28.0379 9.62717 27.6351 9.75412 27.7962 C 9.88106 27.8768 10.2619 28.1185 10.3254 28.1185 C 10.3889 28.0379 10.5158 27.7962 10.5793 27.6351 L 10.8332 27.7962 C 10.8966 27.8768 11.0871 27.8768 11.0871 27.7962 C 11.1505 27.6351 11.1505 27.5545 10.9601 27.4739 L 10.8332 27.3934 C 10.7062 27.1517 10.7062 26.91 10.8332 26.8294 L 10.9601 26.6682 C 10.9601 26.5071 10.8332 26.4265 10.7697 26.346 C 10.7062 26.346 10.3254 26.1043 10.008 26.0237 L 9.81759 26.7488 C 9.50022 26.6682 9.3098 26.5071 9.43675 26.4265 C 9.5637 26.346 9.69064 26.2654 9.69064 26.1848 C 9.62717 26.1848 9.43675 25.9431 9.3098 25.782 L 9.05591 25.6209 C 8.92896 25.7014 8.67507 25.6209 8.54812 25.5403 L 8.42118 25.5403 C 8.23076 25.5403 8.10381 25.5403 7.91339 25.5403 C 7.59602 25.5403 7.34213 25.4597 7.02477 25.5403 C 6.77087 25.6209 6.58045 25.3792 6.26309 25.4597 C 6.13614 25.4597 5.94572 25.3791 5.81877 25.2986 L 5.62835 25.1374 C 5.37446 25.1374 4.99362 25.0569 4.67625 25.0569 C 4.48583 24.9763 3.53373 24.4929 3.21637 24.3318 L 2.899 24.2512 L 2.70858 24.2512 C 2.45469 24.2512 2.13732 24.1706 2.01038 24.09 L 1.37564 23.6872 C 1.43912 23.2844 1.56606 22.8815 1.62954 22.7204 L 1.2487 22.801 C 1.05828 22.801 0.931329 22.7204 0.994802 22.5592 L 0.994802 22.3981 C 1.05828 22.237 0.994802 22.0758 0.931329 21.9953 C 0.867856 21.9147 0.740909 21.673 0.804383 21.673 C 0.867856 21.5924 1.18522 21.3507 1.2487 21.2701 L 1.05828 21.1896 C 0.867856 21.109 0.804383 21.0284 0.867856 20.8673 L 0.994802 20.6256 C 0.867856 20.545 0.613963 19.981 0.487016 19.4171 L 0.106176 18.9336 C 0.233123 18.6114 0.296596 18.3697 0.16965 18.3697 C 0.106176 18.3697 -0.0842436 18.2085 0.0427029 18.128 C 0.16965 17.9668 0.042703 17.564 0.106176 17.564 C 0.16965 17.564 0.423543 17.2417 0.360069 17.0806 L 0.296596 16.9194 C 0.233123 16.6777 0.106176 16.5166 0.16965 16.2749 C 0.16965 16.1137 0.360069 15.872 0.487016 15.7109 C 0.613963 15.3886 0.931329 15.4692 0.994802 15.3886 L 1.12175 15.1469 C 1.31217 15.1469 1.50259 15.2275 1.56606 15.2275 C 1.62954 15.2275 2.07385 14.7441 2.20079 14.7441 C 2.32774 14.7441 2.77205 14.5829 2.899 14.5829 L 3.08942 14.5024 C 3.21637 14.5024 3.47026 14.6635 3.59721 14.5829 C 3.78763 14.5024 3.8511 14.5024 4.04152 14.5829 C 4.16847 14.6635 4.35889 14.5829 4.48583 14.5829 L 4.86667 14.3412 C 4.8032 14.5829 5.12057 14.5024 5.43793 14.1801 L 5.94572 14.2607 L 6.00919 14.2607 C 6.13614 14.1801 6.26309 14.1801 6.32656 14.1801 C 6.39003 14.1801 6.83434 14.1801 7.15171 13.9384 L 7.59602 14.1801 C 7.72297 14.2607 8.10381 14.019 8.16728 14.0995 L 8.42118 14.3412 C 8.6116 14.1801 8.92896 13.9384 9.11938 13.8578 L 9.3098 13.7773 C 9.50022 13.6967 9.75412 13.6967 9.94454 13.7773 C 10.2619 13.8578 10.5793 13.9384 10.8966 13.6967 L 11.1505 13.5355 C 11.4679 13.5355 11.7853 13.5355 11.8487 13.6161 L 11.9757 13.7773 C 12.0392 13.9384 12.2296 13.8578 12.3565 13.6967 C 12.4835 13.5355 13.1817 13.6967 13.4356 13.6967 C 13.6895 13.6967 14.3877 13.3744 14.5781 13.2938 L 14.7685 13.2938 C 15.1493 13.2938 15.3398 13.2938 15.5302 13.2133 C 15.5937 13.2133 15.6571 13.1327 15.7206 13.1327 L 15.8476 13.1327 C 15.9745 13.0521 16.2284 12.9716 16.3553 12.891 L 16.6092 12.891 C 16.7362 13.0521 16.7997 12.9716 16.7997 12.7299 L 17.117 12.8104 C 17.3074 12.8104 17.5613 12.891 17.7518 12.7299 L 17.8787 12.7299 C 17.8787 12.891 17.8787 13.0521 18.0691 12.9716 C 18.1326 12.9716 18.1961 12.7299 18.2595 12.6493 C 18.45 12.5687 18.7039 12.4882 18.9577 12.4076 L 19.2116 12.4076 C 19.529 12.4882 19.8464 12.4076 19.9733 12.4076 C 20.1003 12.327 20.5446 12.2464 20.608 12.327 C 20.735 12.327 21.1158 12.327 21.1158 12.327 C 21.1793 12.2464 21.3697 12.1659 21.3697 12.2464 C 21.3697 12.327 21.5601 12.4076 21.6871 12.4076 C 21.814 12.327 22.1949 12.2464 22.3218 12.327 C 22.3853 12.4076 22.7027 12.5687 22.7661 12.5687 C 22.8296 12.4882 23.02 12.2464 23.0835 12.1659 C 23.147 12.0853 23.5913 12.0853 23.7182 12.0853 L 24.0356 12.0853 C 24.226 12.0853 24.6069 12.0853 24.8608 12.1659 L 25.0512 12.1659 C 25.1147 12.1659 25.1781 12.1659 25.2416 12.0853 L 25.6859 11.763 C 25.9398 12.0047 26.1937 12.0853 26.1937 12.0047 C 26.1937 11.9242 26.3206 11.6825 26.4476 11.763 L 26.638 11.763 C 26.765 11.763 26.9554 11.6019 27.0823 11.4408 L 27.3997 11.4408 C 27.5266 11.2796 27.4632 11.1185 27.3997 10.9573 L 27.2727 10.9573 C 27.0823 10.8768 27.0823 11.0379 27.0189 11.1991 C 27.0189 11.2796 26.8284 11.2796 26.7015 11.2796 C 26.4476 11.3602 26.1937 11.4408 26.0668 11.3602 C 25.8129 11.1991 25.559 11.2796 25.3051 11.2796 C 25.0512 11.2796 24.7973 11.2796 24.5434 11.2796 C 24.2895 11.2796 24.0356 11.2796 23.7817 11.2796 C 23.4009 11.3602 23.2739 11.0379 23.0835 10.7962 L 22.8931 10.5545 C 22.6392 10.5545 22.3853 10.6351 22.2584 10.6351 C 22.1314 10.7156 21.941 10.7156 21.814 10.7156 C 21.6871 10.7156 21.4332 10.4739 21.3063 10.3934 C 21.2428 10.3128 20.7985 10.1517 20.735 10.2322 L 20.6715 10.3128 C 20.608 10.4739 20.608 10.4739 20.8619 10.4739 C 20.9254 10.4739 20.9889 10.4739 20.9889 10.4739 C 20.9889 10.5545 20.9889 10.7156 20.9254 10.7156 C 20.735 10.7156 20.4811 10.8768 20.4811 10.5545 L 20.4811 10.3934 C 20.5446 10.1517 20.5446 9.99052 20.608 9.90995 C 20.608 9.82938 20.608 9.74882 20.5446 9.74882 L 20.4811 9.74882 C 20.4176 9.74882 20.3542 9.74882 20.2272 9.82939 L 19.9098 9.90995 C 20.0368 10.1517 19.9733 10.3934 19.7829 10.4739 C 19.5925 10.5545 18.9577 10.5545 18.9577 10.4739 L 18.9577 10.2322 C 19.0212 10.0711 18.9577 9.99052 18.8943 9.99052 C 18.8308 9.99052 18.5769 9.82938 18.5769 9.50711 L 18.5134 9.50711 L 18.1326 9.74882 C 18.2595 9.2654 18.5134 8.86256 18.6404 8.94313 L 18.7673 9.0237 C 18.8943 9.10427 19.0212 9.18484 19.1482 9.18484 C 19.2116 9.18484 19.3386 9.18483 19.4021 9.10427 L 19.529 9.0237 C 19.7194 9.0237 19.9733 8.86256 20.1003 8.78199 L 20.1003 8.62085 C 19.9733 8.54029 19.7194 8.37915 19.5925 8.37915 L 19.4655 8.45972 C 19.4021 8.54028 19.4655 8.78199 19.2751 8.70142 L 19.0847 8.62085 C 18.9577 8.45972 18.7673 8.45972 18.7039 8.62085 C 18.6404 8.78199 18.2595 8.62085 18.323 8.54029 C 18.323 8.45972 18.323 8.37915 18.2595 8.37915 C 18.1961 8.37915 17.9422 8.45972 17.9422 8.54029 C 17.9422 8.62085 17.8152 8.86256 17.7518 8.86256 C 17.6883 8.78199 17.7518 8.70142 17.6883 8.62085 L 17.4979 8.37915 C 17.1805 8.37915 16.9266 8.37915 16.8631 8.37915 C 16.7997 8.37915 16.7362 8.05687 16.9901 7.7346 L 17.3074 7.89573 L 17.5613 8.05687 C 17.8152 8.05687 18.0691 7.89574 18.0691 7.7346 C 18.0691 7.57346 18.0056 7.17062 17.9422 7.17062 C 17.8787 7.17062 17.6248 7.25119 17.6883 7.33175 L 17.6883 7.49289 C 17.6883 7.57346 17.4979 7.65403 17.3709 7.65403 C 17.244 7.57346 16.9901 7.41232 17.117 7.33175 L 17.117 7.25119 C 17.117 7.17062 16.9901 7.00948 16.9266 6.92891 C 16.9266 6.92891 16.7362 7.00948 16.6727 7.00948 C 16.6092 7.00948 16.4823 6.92891 16.4188 6.84834 C 16.4188 6.84834 16.4823 6.6872 16.5458 6.6872 C 16.6092 6.6872 16.8631 6.76777 17.117 6.84834 C 17.3709 6.92891 18.1961 6.60664 18.2595 6.6872 L 18.323 6.6872 C 18.3865 6.6872 18.5134 6.60664 18.5769 6.52607 L 18.5769 6.36493 C 18.5134 6.28436 18.5769 6.28436 18.6404 6.20379 C 18.7039 6.12322 18.9577 6.12322 19.0212 6.12322 C 19.0847 6.20379 19.2751 6.28436 19.3386 6.20379 C 19.4021 6.12322 19.656 6.12322 19.7194 6.28436 C 19.7829 6.4455 20.0368 6.84834 20.1003 6.84834 C 20.1003 6.84834 20.1003 6.60664 20.0368 6.28436 L 20.0368 5.88152 C 20.2272 5.72038 20.3542 5.72038 20.4176 5.72038 L 20.4176 5.80095 L 20.4811 5.96209 C 20.5446 6.20379 20.6715 6.12322 20.7985 5.80095 L 20.9889 5.72038 L 21.1793 5.55924 C 21.2428 5.31754 21.3697 5.1564 21.4332 5.23697 C 21.4967 5.31754 21.6871 5.47867 21.8775 5.47867 L 22.1314 5.63981 C 22.3218 5.72038 22.5122 5.63981 22.5122 5.47867 C 22.5122 5.31754 22.5757 5.1564 22.6392 5.1564 L 22.7027 5.1564 C 22.8931 5.23697 23.02 5.3981 23.2105 5.3981 C 23.2739 5.3981 23.4009 5.07583 23.4643 5.07583 L 23.6548 5.07583 C 23.8452 5.07583 24.0356 5.07583 24.0991 5.1564 C 24.1626 5.1564 24.353 5.1564 24.353 4.91469 L 24.353 4.75355 L 24.4164 4.59242 C 24.4799 4.43128 24.8608 4.35071 25.2416 4.51185 L 25.6859 4.109 C 25.9398 3.8673 26.1302 3.46445 26.5745 3.8673 C 26.765 3.70616 27.0189 3.62559 27.0823 3.78673 L 27.2093 3.8673 L 27.2727 3.94787 C 27.3362 3.94787 27.5266 3.94787 27.6536 3.94787 C 27.7805 3.94787 28.1614 3.78673 28.3518 3.70616 C 28.4787 3.62559 29.1135 3.62559 29.3039 3.62559 C 29.4943 3.62559 29.9386 3.30332 30.0656 3.46446 C 30.1925 3.54502 30.4464 3.94787 30.3829 4.02844 C 30.3829 4.109 30.4464 4.43128 30.5734 4.43128 L 30.9542 4.43128 C 31.1446 4.109 31.335 3.78673 31.462 3.62559 C 31.5889 3.46446 31.9063 3.06161 31.9698 3.14218 L 32.0332 3.14218 L 32.3506 3.30332 C 32.2871 3.46446 32.1602 3.70616 32.0967 3.78673 L 31.9698 3.94787 C 32.0332 4.02844 32.0967 4.18957 32.1602 4.109 C 32.2237 4.109 32.4776 3.8673 32.7314 3.62559 L 33.0488 3.8673 L 33.1123 3.94787 C 33.1758 4.02844 33.3662 3.8673 33.4297 3.70616 C 33.4931 3.54502 33.874 3.06161 34.0009 3.14218 L 34.1279 3.14218 L 34.3183 3.22275 C 34.5087 3.38389 34.7626 3.46446 34.8261 3.54502 C 34.953 3.54502 34.8895 3.94787 34.953 4.02844 C 35.0165 4.109 35.1434 4.109 35.2069 4.18957 C 35.2069 4.27014 35.4608 4.18957 35.5243 4.02844 C 35.5243 3.8673 35.9686 3.94787 36.0955 3.94787 C 36.159 3.94787 36.5398 3.78673 36.8572 3.8673 L 37.4285 3.8673 C 37.7458 3.94787 37.9997 3.94787 38.0632 3.78673 C 38.1267 3.70616 37.8728 3.22275 37.9363 3.14218 Z M 197.781 7.00948 C 197.908 6.76777 197.844 6.52607 197.59 6.36493 L 197.336 6.36493 L 197.019 6.28436 C 196.702 6.28436 196.511 6.36493 196.638 6.4455 C 196.765 6.52607 197.654 7.25119 197.781 7.00948 Z M 200.828 9.34597 C 200.891 9.2654 200.828 8.94313 200.701 8.62085 L 199.812 8.62085 C 199.622 8.94313 199.558 9.34597 199.748 9.50711 L 199.812 9.50711 L 200.002 9.42654 C 200.193 9.2654 200.383 9.18484 200.447 9.2654 C 200.51 9.42654 200.764 9.42654 200.828 9.34597 Z M 202.922 28.8436 C 202.986 28.8436 203.176 28.6825 203.303 28.4408 C 203.43 28.1991 203.049 27.6351 203.113 27.6351 L 203.113 27.4739 C 202.922 27.3934 202.732 27.3934 202.668 27.4739 C 202.605 27.5545 202.732 27.7962 202.795 27.8768 C 202.859 27.9573 202.795 28.2796 202.859 28.4408 C 202.922 28.5213 202.859 28.8436 202.922 28.8436 Z M 23.7182 8.45972 C 23.7182 8.62085 23.5913 8.62085 23.5278 8.54029 C 23.4009 8.45972 23.4643 8.78199 23.7817 8.78199 L 24.0356 8.78199 L 24.4799 8.86256 C 24.6703 8.54029 24.6703 8.37915 24.5434 8.45972 C 24.4164 8.54028 23.9721 8.37915 23.9721 8.29858 C 23.9721 8.21801 23.9087 7.9763 23.8452 7.9763 C 23.7817 7.9763 23.7182 8.29858 23.7182 8.45972 Z M 29.7482 4.43128 C 29.8751 4.18957 29.6847 4.02844 29.3674 4.02844 L 29.1769 3.78673 C 29.05 3.8673 28.9231 4.02844 28.9231 4.109 C 28.9231 4.18957 29.3039 4.43128 29.4308 4.51185 C 29.4308 4.75355 29.4943 4.83412 29.6847 4.59242 L 29.7482 4.43128 Z M 190.545 4.75355 C 190.545 4.59242 190.481 4.51185 190.418 4.67299 C 190.354 4.75355 190.164 4.91469 190.037 4.83412 C 189.91 4.75355 189.466 4.67299 189.529 4.75355 C 189.593 4.83412 189.593 4.91469 189.529 4.99526 C 189.466 5.07583 189.402 5.23697 189.72 5.1564 L 189.847 5.23697 L 190.037 5.31754 C 190.418 5.23697 190.608 4.91469 190.545 4.75355 Z M 203.049 25.2986 C 203.176 25.3791 203.303 25.3791 203.303 25.218 C 203.366 25.0569 203.113 24.654 203.049 24.5735 L 202.922 24.7346 L 202.668 24.9763 C 202.414 24.8957 202.16 24.8957 202.097 24.8957 L 202.097 25.0569 C 202.224 25.1374 202.414 25.2986 202.541 25.3791 L 202.605 25.3791 C 202.668 25.4597 202.986 25.218 203.049 25.2986 Z M 26.0668 4.75355 C 26.2572 4.83412 26.4476 4.83412 26.4476 4.75355 C 26.4476 4.67299 26.5111 4.43128 26.5111 4.35071 C 26.5745 4.27014 26.4476 4.109 26.2572 4.27014 L 26.1302 4.109 C 25.9398 3.94787 25.8763 4.27014 25.7494 4.35071 C 25.6224 4.43128 25.6224 4.59242 25.7494 4.67299 C 25.8129 4.83412 25.8763 4.99526 26.0668 4.75355 Z M 186.8 22.3981 C 186.736 22.4787 186.8 22.4787 186.99 22.4787 C 187.181 22.4787 187.625 22.801 187.815 22.801 C 188.006 22.801 188.069 22.3175 187.879 22.3175 C 187.562 22.3175 186.863 22.3981 186.8 22.3981 Z M 105.853 32.5498 C 105.726 32.4692 105.662 32.5498 105.662 32.6303 C 105.662 32.7109 105.599 33.0332 105.535 33.0332 C 105.472 33.0332 105.281 33.0332 105.281 33.1137 C 105.281 33.1943 105.281 33.436 105.345 33.436 C 105.345 33.436 105.726 33.3554 106.17 33.2749 L 106.17 32.9526 C 106.17 32.7915 105.916 32.5498 105.853 32.5498 Z M 179.056 1.45024 C 179.183 1.53081 179.374 1.53081 179.5 1.2891 L 179.564 1.12796 C 179.564 1.04739 179.564 0.886256 179.5 0.805687 C 179.437 0.64455 179.31 0.64455 179.12 0.725119 L 178.993 0.805687 C 178.802 0.886256 178.993 1.36967 179.056 1.45024 Z M 175.502 1.45024 C 175.756 1.36967 175.883 1.20853 175.883 1.12796 C 175.819 1.04739 175.438 0.805687 175.375 0.886256 C 175.248 0.966825 175.311 1.53081 175.502 1.45024 Z M 205.017 26.5071 C 205.08 26.346 204.953 26.2654 204.699 26.346 L 204.509 26.4265 C 204.382 26.5071 204.255 26.6682 204.446 26.8294 L 204.509 26.91 C 204.572 27.0711 204.953 26.7488 205.017 26.5071 Z M 41.7447 3.22275 C 41.5542 3.30332 41.6177 3.46446 41.9351 3.54502 L 42.1255 3.62559 C 42.3159 3.70616 42.4429 3.54502 42.5063 3.38389 C 42.5698 3.30332 42.5698 3.22275 42.5063 3.14218 C 42.5063 3.06161 41.8716 2.98104 41.8081 2.98104 L 41.7447 3.22275 Z M 19.2751 7.25119 C 19.2751 7.17062 19.1482 7.00948 19.0212 7.00948 C 18.8943 7.00948 18.7039 7.09005 18.5769 7.17062 C 18.45 7.33175 18.2595 7.81517 18.2595 7.89573 L 18.3865 7.89573 C 18.45 7.89573 18.7673 7.7346 19.0847 7.49289 L 19.2751 7.25119 Z M 40.2213 3.70616 C 40.2213 3.78673 40.2848 3.8673 40.4752 3.78673 C 40.6021 3.70616 40.983 3.46446 41.0464 3.38389 L 40.9195 3.22275 C 40.856 3.14218 40.9195 2.90047 40.6656 2.98104 L 40.4752 3.06161 C 40.3482 3.22275 40.2213 3.62559 40.2213 3.70616 Z M 100.711 1.93365 C 100.902 2.09479 100.838 2.09479 100.711 1.93365 C 100.584 1.77251 100.204 1.45024 100.14 1.53081 C 100.077 1.69194 100.14 2.09479 100.394 2.17536 L 100.457 2.09479 L 100.711 1.93365 Z M 52.5986 3.38389 C 52.5986 3.46446 52.7255 3.46446 52.8525 3.30332 C 52.9794 3.14218 52.9794 2.65877 52.8525 2.73934 C 52.6621 2.81991 52.2812 2.90047 52.2812 2.98104 C 52.2812 3.06161 52.2812 3.14218 52.3447 3.14218 C 52.4082 3.06161 52.5986 3.30332 52.5986 3.38389 Z M 75.1316 2.33649 C 74.7508 2.33649 74.5603 2.41706 74.6873 2.65877 L 74.9412 2.5782 C 75.1951 2.49763 75.3855 2.41706 75.5759 2.33649 C 75.5759 2.33649 75.5759 2.17536 75.5759 2.09479 L 75.449 2.01422 L 75.1316 2.33649 Z M 16.8631 30.0521 C 16.9266 29.891 16.9901 29.5687 16.9266 29.4076 L 16.6727 29.4882 C 16.6092 29.4882 16.4823 29.7299 16.4823 29.5687 C 16.4188 29.327 16.3553 29.2464 16.1649 29.4076 L 16.1014 29.4076 C 16.1649 29.5687 16.3553 29.8104 16.4823 29.9716 L 16.6092 30.0521 L 16.8631 30.0521 Z M 184.134 21.2701 C 184.198 21.1896 184.071 21.0284 183.817 21.0284 L 183.563 21.1896 C 183.436 21.3507 183.436 21.5924 183.499 21.7536 L 183.69 21.7536 C 183.817 21.673 184.134 21.4313 184.134 21.2701 Z M 161.982 1.36967 C 162.045 1.20853 162.045 1.12796 161.855 1.20853 C 161.665 1.2891 161.284 1.20853 161.22 1.2891 L 161.22 1.36967 C 161.22 1.53081 161.157 1.69194 161.347 1.69194 L 161.474 1.69194 C 161.601 1.85308 161.918 1.53081 161.982 1.36967 Z M 187.181 4.99526 C 186.99 4.83412 186.99 4.75355 187.181 4.91469 C 187.371 5.07583 187.942 5.23697 188.006 5.23697 C 188.069 5.1564 188.006 4.91469 187.689 4.83412 L 187.562 4.91469 L 187.181 4.99526 Z M 166.108 1.69194 C 166.298 1.77251 166.425 1.85308 166.362 1.77251 C 166.362 1.69194 166.425 1.45024 166.425 1.45024 C 166.425 1.36967 166.362 1.20853 166.171 1.20853 C 165.981 1.12796 165.917 1.61137 166.108 1.69194 Z M 102.996 1.77251 C 102.806 1.77251 102.869 1.93365 103.06 2.17536 L 103.25 2.25592 L 103.314 2.25592 C 103.568 2.01422 103.187 1.77251 102.996 1.77251 Z M 40.983 30.2938 C 40.7926 30.2938 40.7291 30.3744 40.7291 30.5355 C 40.7926 30.6967 41.0465 30.9384 41.2369 30.8578 C 41.4273 30.7773 41.1734 30.2938 40.983 30.2938 Z M 188.45 24.2512 C 188.45 24.2512 188.387 24.4123 188.323 24.4929 C 188.196 24.5735 188.196 24.8957 188.323 24.8152 L 188.45 24.7346 L 188.641 24.654 C 188.831 24.5735 188.958 24.4123 188.831 24.3318 L 188.704 24.2512 C 188.641 24.2512 188.641 24.1706 188.577 24.1706 L 188.514 24.1706 C 188.45 24.1706 188.45 24.2512 188.45 24.2512 Z M 185.975 21.5924 C 186.165 21.5924 186.292 21.5119 186.165 21.3507 C 186.038 21.2701 185.53 21.3507 185.404 21.3507 C 185.15 21.4313 185.721 21.5924 185.975 21.5924 Z M 96.0778 2.09479 C 96.2682 2.33649 96.5221 2.17536 96.649 1.77251 L 96.2682 1.61137 L 96.2047 1.53081 C 96.0143 1.69194 95.8874 1.85308 95.8874 1.85308 L 96.0778 2.09479 Z M 34.1913 7.57346 C 34.1279 7.65403 34.1279 7.7346 34.1913 7.81517 C 34.2548 7.89574 34.6357 8.05687 34.7626 8.13744 L 34.8895 8.13744 C 34.953 8.13744 35.0165 8.05687 35.0165 8.05687 C 35.0165 7.9763 35.0165 7.89573 35.0165 7.89573 L 34.8261 7.7346 C 34.6356 7.57346 34.3183 7.49289 34.1913 7.57346 Z M 22.5122 8.78199 C 22.2584 8.45972 21.941 8.45972 21.6236 8.62085 C 22.0045 9.10427 22.0045 9.10427 22.5122 8.78199 Z" stroke-linecap="round" />
</g>
</svg>